<?xml version="1.0" encoding="utf-8"?>
<!-- Generator: Adobe Illustrator 19.2.1, SVG Export Plug-In . SVG Version: 6.00 Build 0)  -->
<svg version="1.1" id="Layer_1" xmlns="http://www.w3.org/2000/svg" xmlns:xlink="http://www.w3.org/1999/xlink" x="0px" y="0px"
	 viewBox="0 0 2000 1625.4" style="enable-background:new 0 0 2000 1625.4;" xml:space="preserve">
<style type="text/css">
	.st0{fill:#00ACED;}
</style>
<path class="st0" d="M2000,192.4c-73.6,32.6-152.7,54.7-235.7,64.6c84.7-50.8,149.8-131.2,180.4-227c-79.3,47-167.1,81.2-260.6,99.6
	C1609.3,49.8,1502.7,0,1384.7,0c-226.6,0-410.3,183.7-410.3,410.3c0,32.2,3.6,63.5,10.6,93.5C644,486.7,341.6,323.4,139.2,75.1
	c-35.3,60.6-55.6,131.1-55.6,206.3c0,142.4,72.4,268,182.5,341.5c-67.3-2.1-130.5-20.6-185.9-51.3c0,1.7,0,3.4,0,5.2
	c0,198.8,141.4,364.6,329.1,402.3c-34.4,9.4-70.7,14.4-108.1,14.4c-26.4,0-52.1-2.6-77.2-7.4c52.2,163,203.8,281.6,383.3,284.9
	c-140.4,110.1-317.4,175.7-509.6,175.7c-33.1,0-65.8-1.9-97.9-5.7c181.6,116.4,397.3,184.4,629,184.4
	c754.7,0,1167.5-625.2,1167.5-1167.5c0-17.8-0.4-35.5-1.2-53.1C1875.4,347,1945,274.7,2000,192.4"/>
</svg>
