<?xml version="1.0" encoding="utf-8"?>
<!-- Generator: Adobe Illustrator 19.2.1, SVG Export Plug-In . SVG Version: 6.00 Build 0)  -->
<svg version="1.1" id="Layer_2" xmlns="http://www.w3.org/2000/svg" xmlns:xlink="http://www.w3.org/1999/xlink" x="0px" y="0px"
	 viewBox="0 0 207.3 217" style="enable-background:new 0 0 207.3 217;" xml:space="preserve">
<style type="text/css">
	.st0{fill:#4D4D4D;}
	.st1{fill:#FF5500;}
	.st2{fill:#C0C2C4;}
	.st3{fill:#333333;}
	.st4{fill:#2E363A;}
	.st5{fill:#E1E3E3;}
	.st6{fill:#FF884D;}
</style>
<title>KendoUI_Character</title>
<path class="st0" d="M28.1,67.5c-2.7-4.9-0.9-11,4-13.7c0,0,0,0,0,0l2.9-1.6c4.9-2.7,11-0.9,13.7,4c0,0,0,0,0,0l19.6,35.5
	c2.7,4.9,0.9,11-4,13.7c0,0,0,0,0,0l-3,1.6c-4.9,2.7-11,0.9-13.7-4c0,0,0,0,0,0L28.1,67.5z"/>
<path class="st1" d="M17.4,58c0,0,4.6-17.8,9.9-29.9c0,0,1.1-3.3,10.7-2l0,0h0.3h0.3l0,0c9.6,1.6,9.7,5,9.7,5
	c1.4,12.7,1.1,31.4,1.2,31.6c-5.8,4.9-13.9,4.4-16.5,4.1l0,0l-0.4-0.1l-0.4,0.1l0,0C29.5,66.3,21.6,64.4,17.4,58z"/>
<path class="st1" d="M40.3,10.8c-6.8-1-13.1,3.7-14.1,10.4c0,0,0,0,0,0c-1,6.8,3.8,9.1,10.6,10.1c6.8,1.1,12.9,0.3,13.9-6.4
	C51.8,18.2,47.1,11.8,40.3,10.8C40.4,10.8,40.4,10.8,40.3,10.8z"/>
<path class="st2" d="M30.7,29.9c0.2,1.2,1.4,4.3,0.4,4.5L3.1,38.9c-1,0.2-2.8-2.2-3.1-3.5l0,0c-0.2-1.2,0.7-4,1.6-4.2L29.2,27
	C30.2,26.8,30.5,28.7,30.7,29.9L30.7,29.9L30.7,29.9z"/>
<path class="st1" d="M37.1,197.9v4c0,2.4,2,4.4,4.4,4.4h0h13.2c0.8,0,1.5-0.1,2.3-0.2L37.1,197.9z"/>
<path class="st1" d="M202.1,187.5l-29.9,12.4c-0.2,0.1-0.4,0.1-0.6,0.2c3.2,2.1,7,3.2,10.8,3.2h14.9c2.8,0,5-2.2,5-5v-11
	L202.1,187.5z"/>
<path class="st0" d="M203,176.7l-60.2-31.6c-25.7-12.6-51-31.8-67.8-20.2c-24.3,16.8,45.2,64.2,51,69.4c11.8,10.5,40.1,9.4,47.5,6.3
	l27.8-10.2C206.1,188.6,211,184.7,203,176.7z"/>
<path class="st0" d="M31.4,188.7c0,0-2.3-18-1-22.6s34.1-33.1,53-25.2c10.6,4.4,5.9,16.5,9,26.6c0.3,0.6,8.2,13,8.4,13.5l5.7,9.4
	c1.7,4.2-0.3,9-4.5,10.8c0,0,0,0,0,0l-17.8,9.5c-3.2,1.3-12.5,3.6-19.9,0.5l-25.6-10.6C33.9,198.5,31.6,194.6,31.4,188.7z"/>
<path class="st1" d="M106.9,146c-0.4-1.2-1-2.3-1.6-3.4c-5.1-10.4-17.7-14.8-28.1-9.7c-5.5,2.7-9.5,7.5-11.1,13.4l-4.1,15.2
	c-0.8,2.8,0.9,5.7,3.7,6.4c0,0,0,0,0,0l15.2,4.1c6.6,1.8,17.6-3.1,17.2-2.9l10.6-3.8c2.5-0.9,3.8-3.6,2.9-6.1c0,0,0,0,0,0L106.9,146
	z"/>
<path class="st1" d="M79.2,127.8c-5.5-10.7-18.4-15.2-29.5-10.4c-0.8,13.6-6.6,26.5-16.4,36c0.5,2.1,2.3,3.8,4.5,4.2l16.9,3.2
	c1.5,0.3,3,0.4,4.4,0.4l3.8-14.4C65.2,138.4,71.1,131.4,79.2,127.8z"/>
<path class="st1" d="M130.7,135.3c-8.6-6.6-15.1-15.7-18.4-26c-11.8-1.8-23,5.9-25.5,17.5c8.6,1.3,16.1,6.5,20.5,14l7.4,12.8
	c1.4-0.4,2.8-0.9,4.1-1.5l15.3-7.4c2-1,3.2-3,3.2-5.2C134.9,138.3,132.7,136.9,130.7,135.3z"/>
<path d="M122.3,126.5c0,0-5-21.6-15.9-40c0,0-5-4.7-28.5-1.8l0,0l-0.7,0.1l-0.7,0.1l0,0c-23.4,3.3-27,9.1-27,9.1
	c-5.7,20.7-4.9,42.8-4.9,42.8c13.2,7.2,32.8,5.7,39.1,5l0,0l1-0.1l1-0.1l0,0C92.1,140.5,111.4,136.9,122.3,126.5z"/>
<path class="st1" d="M97.8,63.9c-1.7-2.1-3.2-4.3-4.5-6.6c-1.8,0.8-3.5,1.9-5,3.2c-7.9,7.3-8.5,20.7-1.3,30s19.3,10.9,27.2,3.6
	l10.7-9.9c1.7-1.7,2.1-4.3,1-6.4C115,77.3,104.8,72.2,97.8,63.9z"/>
<path class="st1" d="M53.6,71.8c0.7-2.6,1.1-5.3,1.3-8c2-0.1,4,0.2,5.9,0.8c10.3,3.3,16.5,15.2,14,26.8s-13,18.2-23.2,14.9l-14-4.4
	c-2.2-0.8-3.7-3-3.6-5.4C43.6,91.3,50.8,82.4,53.6,71.8z"/>
<path class="st3" d="M88.9,95.9l13-19.4c9.6-14.3,6.9-35.1-6.1-46.4s-31.3-8.9-40.9,5.4s-6.8,35.1,6.2,46.4l17.6,15.4
	c2.7,2.5,7,2.3,9.5-0.4C88.4,96.5,88.7,96.2,88.9,95.9z"/>
<path class="st2" d="M102.4,52.8c2,15.3-6.2,29-18.4,30.6S60.2,74,58.2,58.7s6.2-29,18.5-30.6S100.4,37.5,102.4,52.8z"/>
<path class="st4" d="M80.2,126.5l1.2-0.1l0.9-0.1h0.3l0.9-0.1L84,126c5.9-1,23.1-4.4,34.3-13.4c-0.3-0.8-0.6-1.7-0.9-2.5
	c-10.9,9.2-28.8,12.6-34.2,13.5l-0.5,0.1l-0.5,0.1l-0.4,0.1l-0.6,0.1c-5.4,0.7-23.1,2.2-36-3.4c-0.1,0.9-0.1,1.8-0.2,2.7
	C57.5,128.2,73.7,127.2,80.2,126.5z"/>
<path class="st4" d="M85.2,135c6.1-1,24.3-4.6,35.6-14.2c-0.2-0.8-0.5-1.7-0.8-2.6c-11,9.9-30,13.6-35.6,14.5l-0.5,0.1l-0.5,0.1
	l-0.4,0.1l-0.6,0.1c-5.6,0.7-24.4,2.4-37.7-3.9c0,1,0,1.9,0,2.8c12.9,5.6,30,4.5,36.8,3.8l1.2-0.1l0.9-0.1H84l0.9-0.1L85.2,135z"/>
<path class="st4" d="M45.9,112.3c-0.1,0.9-0.2,1.8-0.3,2.6c11.8,5,27.3,4.1,33.5,3.4l1.2-0.1l0.8-0.1h0.3l0.8-0.1l0.4-0.1l0.6-0.1
	h0.1c6.3-1.1,21.8-4.5,31.8-12.8c-0.3-0.8-0.7-1.6-1-2.4c-10.1,8.9-27.2,12.2-32.4,13l-0.5,0.1l-0.5,0.1h-0.4l-0.6,0.1
	C75,116.3,58.1,117.8,45.9,112.3z"/>
<ellipse class="st5" cx="86.4" cy="55.9" rx="11.9" ry="18.4"/>
<path class="st6" d="M36.8,98c-0.2,0.1,8.7,3.7,10.2,3.2c0,0,10.1-9.8,11.7-13.6l-5.1-7.2C53.5,80.5,46.8,93.9,36.8,98z"/>
<path class="st6" d="M124.8,80c0.2,0-5.9,6.2-7.3,6.3c0,0-7.9-0.9-16.3-8.2l3-5.3C104.2,72.9,114.9,80.2,124.8,80z"/>
<path class="st6" d="M120.9,127.8c0,0,10.4,12.2,15,12.7c0,0,0.1,2.5-6,5.1c-3.6,1.5-7.1,3.2-10.5,5.1c0,0-1.8-0.2-0.6-1.3
	s11.7-5.6,11.7-6.8s-9.8-11.6-10.8-13.8L120.9,127.8z"/>
<path class="st6" d="M46.1,137.4c0,0-5.1,13.5-10.6,16c-0.1,1.1,0.6,2.2,1.6,2.6c1.9,0.8,6.8,1.1,8.4,1.8s12.2,3.1,12.9,1.6
	s1.7-4.3,1.6-5c-0.1-0.5-0.6-0.9-1.1-0.9c-0.3,0-0.5,0.2-0.7,0.4c-0.6,0.9-0.7,3.6-1.8,3.5s-14.8-2.5-15.8-3.1c0,0,6.7-13.7,7-16.1
	L46.1,137.4z"/>
<path class="st6" d="M65.4,156.3c0,0-2.6,5.8-1.4,8.2c1.2,2.4,6.4,2.7,7.9,3.4s10.8,4.4,17.2,3.2s7.4-3,12.5-4.8s2.6-2.6,1.8-2.5
	s-7,2.2-8.4,2.7s-10.2,4-17.6,0.1s-7.3-1.2-8.4-4s0.5-10-1.5-10.4S66.1,154.5,65.4,156.3z"/>
<path d="M100.2,54c-0.1-1-6.1,0.5-14.1,1.8c-0.2-1.7-0.5-3.4-0.8-5.1c7.8-0.9,13.6-1.4,13.5-2.3s-6-0.5-13.9,0.4
	c-0.3-1.8-0.7-3.4-1.1-5c7-0.7,12.3-0.8,12.2-1.5s-5.5-0.9-12.6-0.2c-0.5-1.8-0.9-3.4-1.3-4.7c4.7-0.6,8.2-1,8.2-1.5s-3.8-0.5-8.7,0
	c-0.7-2.1-1.3-3.3-1.5-3.3s0,1.3,0.4,3.4l-0.7,0.1c-5.7,0.8-10.3,1.9-10.2,2.5s4.7-0.2,10.4-0.9l0.8-0.1c0.3,1.4,0.6,3,1,4.8
	l-1.2,0.1c-8.4,1.1-15,3.1-14.9,3.9s6.8-1.1,15.1-2.2l1.3-0.2c0.3,1.6,0.6,3.2,0.9,5l-1.5,0.2c-9.4,1.2-17,2.7-16.9,3.7
	s7.7-0.5,17.1-1.8l1.6-0.2c0.3,1.7,0.5,3.4,0.8,5.1l-1.7,0.2c-9.8,1.3-17.8,1.2-17.7,2.4S73,59.3,82.8,58l1.7-0.2
	c0.2,1.9,0.4,3.7,0.6,5.5l-1.6,0.2c-9.4,1.2-17.4-0.1-17.2,0.9s8,2,17.5,0.8l1.5-0.2c0.2,1.8,0.3,3.5,0.4,5l-1.2,0.2
	C76,71.3,68.9,70,69,70.8s7.6,2.1,16,1l0.7-0.1c0.1,1.9,0.2,3.5,0.3,4.9l-0.8,0.1c-5.7,0.8-10.5-0.1-10.4,0.6s4.9,1.6,10.6,0.8
	l0.7-0.1c0.1,1.8,0.2,2.7,0.4,2.7s0.4-1.1,0.5-2.9c4.9-0.9,8.4-2.7,8.4-3.3s-3.5,1-8.3,1.9c0.1-1.4,0.1-3.1,0.1-5
	c7.2-1.3,12.2-3.9,12.1-4.6s-5.2,1.6-12.1,2.9c0-1.6-0.1-3.3-0.2-5c7.8-1.4,13.5-3.9,13.3-4.8s-5.7,1.6-13.5,3.1
	c-0.1-1.8-0.3-3.6-0.5-5.5C94.3,56.4,100.3,55,100.2,54z"/>
<path class="st2" d="M173.9,5.7c0.2,1.3-0.6,2.6-1.9,2.8c0,0,0,0-0.1,0L44.1,33.9c-1.3,0.2-3.7-2.3-4-3.6l0,0
	c-0.2-1.3,1.1-4.3,2.5-4.6L171.1,3.8C172.4,3.5,173.7,4.4,173.9,5.7C173.9,5.7,173.9,5.7,173.9,5.7L173.9,5.7L173.9,5.7z"/>
<path class="st1" d="M125,16.6l-0.6-3.2c-0.3-1.5-1.7-2.6-3.3-2.3c0,0,0,0-0.1,0c-0.5,0.1-0.9,0.3-1.2,0.6c-1.5-0.5-3.1,0.3-3.6,1.8
	c-0.2,0.5-0.2,0.9-0.1,1.4l0.6,3.2c0.3,1.5,1.8,2.6,3.3,2.3c0,0,0,0,0,0c0.5-0.1,0.9-0.3,1.2-0.6c0.4,0.1,0.9,0.2,1.4,0.1
	C124.2,19.6,125.2,18.1,125,16.6z"/>
<path class="st1" d="M178.5,4.9c0.3,1.6-0.8,3.1-2.4,3.4l-3.4,0.6c-1.6,0.3-3.1-0.8-3.4-2.4c0,0,0,0,0,0l0,0
	c-0.3-1.6,0.8-3.1,2.4-3.4l3.4-0.6C176.7,2.3,178.2,3.3,178.5,4.9L178.5,4.9z"/>
<path class="st0" d="M50.1,83.3c-4.7-3-6.2-9.2-3.2-13.9l1.8-2.9c2.9-4.7,9.2-6.2,13.9-3.2c0,0,0,0,0,0L97,84.8
	c4.7,3,6.2,9.2,3.2,13.9l-1.8,2.9c-3,4.7-9.2,6.2-13.9,3.2L50.1,83.3z"/>
<path class="st1" d="M39,76.7c0,0-4.7-17.7-6-30.9c0,0-0.7-3.4,8.4-7l0,0l0.3-0.1l0.3-0.1l0,0c9.2-3.3,10.9-0.3,10.9-0.3
	c7.4,10.4,16.4,26.9,16.4,27c-2.7,7.2-10,10.7-12.4,11.7l0,0l-0.4,0.2L56,77.2l0,0C53.5,78.1,45.7,80.3,39,76.7z"/>
<path class="st1" d="M35.9,24.4c-6.4,2.4-9.6,9.6-7.2,16c0,0,0,0,0,0c2.4,6.4,7.8,6.1,14.2,3.6s11.4-6,9-12.4
	C49.6,25.2,42.4,22,35.9,24.4C36,24.4,36,24.4,35.9,24.4z"/>
<path class="st6" d="M32.2,30c0,0-3.4,4.5-1.1,8.9s5.7,4.5,5.7,4.5l6.8,33.2c1.7,0.7,3.5,1,5.4,0.8l-8.4-33.9c0,0,3.8-0.4,2.7-1.7
	s-4.9-1.1-6.5-1.9s-6.1-3.7-2.8-8.6C35.7,28.7,33.3,28.4,32.2,30z"/>
<path class="st3" d="M44.4,159.1c0,0-8,6.8-7.5,7.8s4.1,2.5,5.6,1.5s7.1-8.2,7.1-8.2L44.4,159.1z"/>
<path class="st3" d="M40.1,158.5c0,0-7.6,6.1-7.9,7.9s0.1,23.5,1.2,25.5s1.5,1.2,1.5,0.1s-1.2-23.6-0.8-25.2s8.5-7.9,8.5-7.9
	L40.1,158.5z"/>
<path class="st3" d="M103.3,167.6c0,0,37.4,30.5,41.4,31.2s2.9-0.5,2.5-1.4s-40.6-31.8-40.8-31.2L103.3,167.6z"/>
<path class="st3" d="M108.5,165.7c0,0,28.7,22.1,29.3,21.6s1.6-1.1,0.8-1.9S109.9,165,109.9,165L108.5,165.7z"/>
</svg>
