<?xml version="1.0" encoding="utf-8"?>
<!-- Generator: Adobe Illustrator 19.2.1, SVG Export Plug-In . SVG Version: 6.00 Build 0)  -->
<svg version="1.1" id="Layer_1" xmlns="http://www.w3.org/2000/svg" xmlns:xlink="http://www.w3.org/1999/xlink" x="0px" y="0px"
	 viewBox="0 0 206.5 214.5" style="enable-background:new 0 0 206.5 214.5;" xml:space="preserve">
<style type="text/css">
	.st0{opacity:0.4;fill:none;stroke:#FFFFFF;stroke-width:2;stroke-miterlimit:10;}
	.st1{opacity:0.4;fill:none;stroke:#FFFFFF;stroke-width:3;stroke-miterlimit:10;}
	.st2{opacity:0.4;fill:#FFFFFF;}
</style>
<title>KendoUI_Character</title>
<path class="st0" d="M170.5,93.1l12.8-23.3c0.4-0.7,0.7-1.4,0.9-2.1"/>
<path class="st0" d="M174,69.4c1.5,0.1,3,0,4.5-0.2l0.4-0.1l0.4-0.1c2.6-0.5,10.5-2.3,14.6-8.8c0,0-2.4-9.5-5.8-19.3"/>
<path class="st0" d="M162.1,19.5c3.3-6,10.8-8.3,16.8-5c3.4,1.9,5.8,5.2,6.4,9.1c0.6,4-0.9,6.5-3.6,8"/>
<path class="st0" d="M172.2,199.8v4c0,2.4-2,4.4-4.4,4.4l0,0H154"/>
<path class="st0" d="M35.6,203.2c-2.8,1.4-5.8,2.1-8.9,2.1h-15c-2.8,0-5-2.2-5-5v-8"/>
<path class="st0" d="M113.6,172c-13.6,12.1-27.9,22.2-30.4,24.4c-11.8,10.5-40.1,9.4-47.5,6.3L7.9,192.5c-4.7-2-9.7-5.8-1.7-13.8
	l60.2-31.6c2.2-1.1,4.3-2.2,6.4-3.3"/>
<path class="st0" d="M115.8,172.3c-2.4,3.8-5.3,8.3-5.4,8.6l-5.7,9.4c-1.7,4.2,0.3,9,4.5,10.8c0,0,0,0,0,0l17.8,9.5
	c3.2,1.3,12.5,3.6,19.9,0.6l25.6-10.6c4.7-2,7.1-5.9,7.3-11.8c0,0,2.3-18,1-22.6c-0.3-1.2-2.6-3.8-6.2-7"/>
<path class="st0" d="M141.5,144.3c0.7,1.3,1.2,2.7,1.6,4.1l4.1,15.2c0.8,2.8-0.9,5.7-3.7,6.4c0,0,0,0,0,0l-15.2,4.1
	c-6.6,1.8-17.6-3.1-17.2-2.9l-10.6-3.8c-2.5-0.9-3.8-3.6-2.9-6.1c0,0,0,0,0,0l4.7-13.4c0.4-1.2,1-2.3,1.6-3.4c0.9-1.8,2-3.5,3.4-5"
	/>
<path class="st0" d="M164.6,139.4c1.7,3.6,3.7,7,6.1,10.1c1.6,2.1,3.4,4.1,5.2,5.9c-0.5,2.1-2.3,3.8-4.5,4.2l-16.9,3.2
	c-1.5,0.3-3,0.4-4.4,0.4l-3.8-14.4c-0.5-1.7-1.1-3.3-1.8-4.9"/>
<path class="st0" d="M104.7,139c-1,1.2-1.9,2.5-2.7,3.9l-7.4,12.8c-1.4-0.4-2.8-0.9-4.2-1.5l-15.2-7.4c-2-1-3.2-3-3.2-5.2
	c5.9-3.3,11.2-7.7,15.5-13"/>
<path class="st0" d="M162.3,107.9c1.7,10.2,2.5,20.6,2.3,30.9c-13.2,7.2-32.8,5.7-39.1,5l-1-0.1l-1-0.1c-6.3-0.9-25.6-4.6-36.5-15
	c2.7-10.9,6.5-21.5,11.4-31.6"/>
<path class="st1" d="M164.3,130.7c-12.7,6.9-31.5,5.4-37.5,4.7l0,0l-1-0.1l-1-0.1l0,0c-6-0.9-24.5-4.4-35-14.3"/>
<path class="st1" d="M164.8,122.4c-12.5,6.8-30.9,5.3-36.8,4.7l0,0l-1-0.1l-1-0.1l0,0c-5.9-0.9-24.1-4.3-34.4-14.1"/>
<path class="st1" d="M163.3,115c-11.6,6.3-28.9,5-34.4,4.4l0,0l-0.9-0.1l-0.9-0.1l0,0c-5.5-0.8-22.5-4-32.1-13.1"/>
<path class="st0" d="M110.4,100.6c-4.6,0.2-9-1.4-12.3-4.5l-10.7-9.9c-1.7-1.7-2.1-4.3-1-6.4c7.6-0.4,14.9-2.9,21.1-7.4"/>
<path class="st0" d="M139.7,99.4c4.3,7.7,12.6,11.5,21,8.9l14-4.4c2.2-0.9,3.6-3.1,3.5-5.4C172,95.1,166.7,90.1,163,84"/>
<path class="st0" d="M115.7,86.5l-5.4-8.1c-9.6-14.3-6.9-35.1,6.1-46.4c2.2-2,4.7-3.6,7.4-4.8"/>
<path class="st2" d="M126.3,78.6c0.1-1.4,0.2-3,0.3-4.9l0.7,0.1c2.7,0.3,5.4,0.5,8.1,0.4l2.5-1.6c-3.3,0.1-6.6,0-9.9-0.4l-1.2-0.2
	c0.1-1.6,0.2-3.2,0.4-5l1.5,0.2c4.6,0.6,9.2,0.7,13.8,0.3c-1,2.1-2.6,3.9-4.5,5.3c-3.7,2.4-7.6,3.8-11.2,5.9L126.3,78.6z"/>
<path class="st2" d="M109.8,54.8c2-15.3,13.6-26.4,25.8-24.8c8.8,1.2,15.5,8.5,17.8,18.2c-0.9,0.6-1.6,1.5-1.9,2.6
	c-1.6,4.6-5,8.6-7.2,12.9c-0.4,0.8-0.8,1.5-1.1,2.3c-4.8,0.2-9.6,0-14.3-0.5l-1.6-0.2c0.2-1.8,0.4-3.6,0.6-5.5l1.7,0.2
	c7,0.9,13.1,1.4,16,1.2c0.1-0.4,0.3-0.9,0.4-1.3c-2.8-0.5-9-0.7-16.2-1.7l-1.7-0.2c0.2-1.8,0.5-3.5,0.8-5.1l1.6,0.2
	c9.4,1.2,17,2.8,17.1,1.8s-7.4-2.4-16.9-3.7l-1.5-0.2c0.3-1.8,0.6-3.4,0.9-5l1.3,0.2c8.4,1.1,15,3,15.1,2.2s-6.5-2.8-14.9-3.9
	l-1.2-0.1c0.4-1.8,0.7-3.4,1-4.8l0.8,0.1c5.7,0.8,10.3,1.6,10.4,0.9s-4.5-1.8-10.2-2.5l-0.7-0.1c0.4-2.2,0.6-3.4,0.4-3.4
	s-0.8,1.2-1.5,3.3c-4.9-0.5-8.6-0.6-8.7,0s3.5,0.9,8.2,1.5c-0.4,1.3-0.9,2.9-1.3,4.7c-7.1-0.7-12.5-0.5-12.6,0.2s5.2,0.7,12.2,1.5
	c-0.4,1.5-0.7,3.2-1.1,5c-7.8-0.9-13.8-1.3-13.9-0.4s5.8,1.3,13.5,2.3c-0.3,1.6-0.6,3.3-0.8,5.1c-8-1.3-14-2.8-14.1-1.8
	s5.8,2.4,13.9,3.6c-0.2,1.9-0.4,3.7-0.5,5.5c-7.7-1.5-13.4-3.9-13.5-3.1s5.6,3.3,13.3,4.8c-0.1,1.8-0.2,3.5-0.2,5
	c-6.9-1.3-12-3.6-12.1-2.9s4.9,3.3,12.1,4.6c0,1.9,0,3.6,0.1,5c-4.7-0.9-8.2-2.4-8.3-1.9s3.3,2.3,8.1,3.2c-1.3,0.9-2.6,2-3.7,3.2
	C113.1,78,108.3,66.9,109.8,54.8z"/>
<path class="st0" d="M182.7,39.5l19.1,3.1c1,0.2,2.8-2.2,3.1-3.5s-0.7-4-1.6-4.2L181,31.4"/>
<path class="st0" d="M143.3,69.2l-28.8,17.9c-4.7,3-6.2,9.2-3.2,13.9l1.8,2.9c3,4.7,9.2,6.2,13.9,3.2l34.4-21.4
	c1.9-1.2,3.4-3,4.1-5.1"/>
<path class="st0" d="M158.3,41.2c-7.3,10.4-15.9,26.3-16,26.4c2.7,7.2,10,10.7,12.4,11.7l0.4,0.2l0.4,0.2c2.5,0.9,10.3,3.1,17-0.5
	c0,0,4.7-17.7,6-30.9c0-0.2,0-0.3,0-0.5"/>
<path class="st0" d="M167.7,26.4c6.6-1.9,13.4,1.9,15.3,8.5c0.7,2.6,0.6,5.3-0.3,7.8c-2.4,6.4-7.8,6.1-14.2,3.6
	c-3.5-1.3-6.6-3-8.3-5.3"/>
<path class="st0" d="M152.9,33.8c0.5,3.8,2.6,6.7,5.6,7.2c4.1,0.8,8.3-3.2,9.4-9s-1.3-11-5.4-11.8c-3-0.6-6.1,1.5-8,4.9"/>
<path class="st0" d="M76.4,12.1L30.3,4.2"/>
<path class="st0" d="M30.5,9.2l45.7,9"/>
<path class="st0" d="M83.3,19.7l73.5,14.5c1.3,0.2,3.7-2.3,4-3.6s-1.1-4.3-2.5-4.6L83.5,13.3"/>
<path class="st0" d="M75.8,17l0.6-3.2c0.3-1.5,1.7-2.6,3.3-2.3c0,0,0,0,0,0c0.5,0.1,0.9,0.3,1.2,0.6c1.5-0.5,3.1,0.3,3.6,1.8
	c0.2,0.5,0.2,0.9,0.1,1.4L84,18.4c-0.3,1.5-1.7,2.6-3.3,2.3c0,0,0,0,0,0c-0.5-0.1-0.9-0.3-1.2-0.6c-0.4,0.1-0.9,0.2-1.4,0.1
	C76.6,20,75.5,18.5,75.8,17C75.8,17,75.8,17,75.8,17z"/>
<path class="st0" d="M22.3,5.3c-0.3,1.6,0.8,3.1,2.4,3.4L28,9.3c1.6,0.3,3.1-0.8,3.4-2.4c0,0,0,0,0,0l0,0c0.3-1.6-0.7-3.1-2.3-3.4
	c0,0,0,0,0,0l-3.3-0.6C24.1,2.5,22.6,3.6,22.3,5.3C22.3,5.2,22.3,5.2,22.3,5.3L22.3,5.3z"/>
</svg>
