<?xml version="1.0" encoding="utf-8"?>
<!-- Generator: Adobe Illustrator 19.2.1, SVG Export Plug-In . SVG Version: 6.00 Build 0)  -->
<svg version="1.1" id="Layer_1" xmlns="http://www.w3.org/2000/svg" xmlns:xlink="http://www.w3.org/1999/xlink" x="0px" y="0px"
	 viewBox="0 0 260.6 80.3" style="enable-background:new 0 0 260.6 80.3;" xml:space="preserve">
<style type="text/css">
	.st0{fill:#F47847;}
	.st1{fill:#F36B2A;}
	.st2{fill:#292C2F;}
</style>
<g id="Page-1">
	<g id="shield-large">
		<g id="Imported-Layers" transform="translate(8.000000, 11.000000)">
			<path id="Fill-1" class="st0" d="M30.4-10.7L30.4-10.7L-7,2.5l5.7,49.3l31.6,17.5l32.1-17.7l6.3-49.3L30.4-10.7"/>
			<path id="Fill-2" class="st1" d="M68.6,2.3l-38.3-13v80.1l32.1-17.7L68.6,2.3L68.6,2.3z"/>
		</g>
	</g>
</g>
<g>
	<path class="st2" d="M112.2,18.1c0.9,0.4,1.7,1,2.3,1.6c0.6,0.7,1.1,1.5,1.4,2.5c0.3,1,0.4,2,0.2,3l-4.1,33.5h-5.1l0.6-5.1l0.6-5.2
		l0.7-5.1l1.3-11.1l0.9-7c0.1-0.8-0.1-1.4-0.6-1.9c-0.4-0.5-1-0.8-1.8-0.8H107c-0.7,0-1.4,0.3-2,0.8c-0.6,0.5-0.9,1.1-1,1.9
		l-2.2,18.1l-0.7,5.1l-1.2,10.3h-5.1l1.3-10.3l0.6-5.1l2.2-18.1c0.1-0.8-0.1-1.4-0.6-1.9c-0.4-0.5-1-0.8-1.8-0.8H95
		c-0.8,0-1.4,0.3-2,0.8c-0.6,0.5-0.9,1.1-1,1.9l-0.8,7l-1.4,11.1l-0.6,5.1l-0.6,5.2l-0.7,5.1h-5.1l4.1-33.5c0.1-1.1,0.5-2.1,1-3
		c0.5-1,1.2-1.8,2-2.5c0.8-0.7,1.7-1.2,2.7-1.6c1-0.4,2-0.6,3.1-0.6h1.5c2.1,0,3.7,0.7,5,2c1.6-1.3,3.4-2,5.5-2h1.5
		C110.3,17.5,111.3,17.7,112.2,18.1z"/>
	<path class="st2" d="M132.1,17.5L127,58.7h-5.1l5-41.2C127,17.5,132.1,17.5,132.1,17.5z"/>
	<path class="st2" d="M156.1,19.5c0.3,0.3,0.5,0.5,0.4,0.5c0,0-0.1-0.1-0.2-0.2s-0.2-0.2-0.3-0.3C155.9,19.3,155.9,19.4,156.1,19.5
		c0.7,0.8,1.2,1.6,1.5,2.7c0.3,1,0.4,2,0.3,3.1l-1.6,13h-1.6h-3.5l1.6-13c0.1-0.7-0.1-1.3-0.6-1.9c-0.5-0.5-1.1-0.8-1.8-0.8h-1.5
		c-0.7,0-1.4,0.3-2,0.8c-0.6,0.5-0.9,1.1-1,1.9L142.7,51c-0.1,0.7,0.1,1.3,0.6,1.9s1.1,0.8,1.8,0.8h1.5c0.8,0,1.4-0.3,2-0.8
		c0.6-0.5,0.9-1.2,1-1.9l0.3-2.5h-4.5l0.6-5.1h4.6h3.5h1.6l-0.9,7.6c-0.2,1.7-0.9,3.2-2,4.5c-1.1,1.3-2.5,2.3-4,2.9
		c-0.9,0.3-1.8,0.5-2.7,0.5h-1.5c-1.1,0-2-0.2-2.9-0.6c-0.9-0.4-1.6-0.9-2.3-1.6c-0.6-0.7-1.1-1.5-1.4-2.4c-0.3-0.9-0.4-1.9-0.3-3
		l3.1-25.8c0.1-1.1,0.5-2.1,1-3c0.5-0.9,1.2-1.8,2-2.5c0.8-0.7,1.7-1.3,2.7-1.7c1-0.4,2-0.6,3.1-0.6h1.5c0.9,0,1.8,0.2,2.7,0.5
		C154.6,18.3,155.4,18.8,156.1,19.5z"/>
	<path class="st2" d="M183.8,32.4c-0.1,1-0.4,2-0.9,2.9c-0.5,0.9-1.1,1.7-1.8,2.4c0.5,0.7,1,1.5,1.2,2.4c0.3,0.9,0.3,1.9,0.2,2.9
		l-2,15.9h-5.1l0.7-5.1l1.3-10.8c0.1-0.8-0.1-1.4-0.5-1.9c-0.5-0.5-1.1-0.8-1.8-0.8h-4.2l-1.6,13.4l-0.7,5.1h-5.1l2.3-18.5h-1.9
		l0.6-5.1h1.9l2.2-17.6h9.4c1.1,0,2,0.2,2.9,0.6c0.9,0.4,1.6,1,2.3,1.6c0.6,0.7,1.1,1.5,1.4,2.5c0.3,1,0.4,2,0.3,3L183.8,32.4z
		 M175.6,35.1c0.7,0,1.4-0.3,2-0.8s0.9-1.2,1-1.9l0.1-0.1l0.8-7c0.1-0.8-0.1-1.4-0.5-1.9c-0.5-0.5-1.1-0.8-1.8-0.8H173l-1.2,9.7
		l-0.4,2.8H175.6z"/>
	<path class="st2" d="M204.9,17.5c1.1,0,2.1,0.2,3,0.6c0.9,0.4,1.7,1,2.3,1.6c0.6,0.7,1.1,1.5,1.4,2.5c0.3,1,0.4,2,0.2,3l-4.1,33.5
		h-5.1l0.6-5.1l0.6-5.2h-6.9l-0.6,5.2l-0.6,5.1h-5.1l1.3-10.3h-1.9l0.6-5.1h1.9l2.2-18.1c0.1-1.1,0.5-2.1,1-3c0.5-1,1.2-1.8,2-2.5
		c0.8-0.7,1.7-1.2,2.7-1.6s2-0.6,3.1-0.6L204.9,17.5L204.9,17.5z M206.6,25.2c0.1-0.8-0.1-1.4-0.6-1.9c-0.4-0.5-1-0.8-1.8-0.8h-1.5
		c-0.7,0-1.4,0.3-2,0.8c-0.6,0.5-0.9,1.1-1,1.9l-0.9,7l-1.3,11.1h6.9l1.3-11.1L206.6,25.2z"/>
	<path class="st2" d="M236.7,17.5l-0.6,5.1h-0.5h-5.3l-4.4,36.1h-5.1l4.5-36.1H224h-5.1l0.6-5.1h3.3h3h3h2.1
		C230.9,17.5,236.7,17.5,236.7,17.5z"/>
	<path class="st2" d="M260.6,17.5l-0.6,5.1h-0.5h-7.4h-1.5c-0.8,0-1.4,0.3-2,0.8c-0.6,0.5-0.9,1.1-1,1.9l-0.9,7l-0.3,2.8h4.2h2.9
		h0.5l-0.6,5.1h-0.5h-2.9h-4.3l-1,8.2l-0.3,2.2l-0.1,0.4c-0.1,0.7,0.1,1.3,0.4,1.8s0.8,0.8,1.4,0.9h4.7h5.1l-0.6,5.1v0.1h-5.1h-4.2
		c-0.1,0-0.3,0-0.4,0c-0.1,0-0.3,0-0.4-0.1c-0.6,0-1.2-0.2-1.8-0.4c-1.4-0.6-2.6-1.5-3.3-2.8c-0.8-1.3-1.1-2.8-0.9-4.6l0.3-2.5
		l0.4-2.7l0.3-2.4l0.4-3.1h-1.9l0.6-5.1h1.9l1.2-9.8c0.2-1.7,0.9-3.2,2-4.5c1.1-1.3,2.4-2.3,4-2.8c0.9-0.3,1.8-0.5,2.8-0.5h1.5
		L260.6,17.5L260.6,17.5z"/>
</g>
<g>
	<path class="st2" d="M31.9,18.1c0.9,0.4,1.6,1,2.3,1.6c0.6,0.7,1.1,1.5,1.4,2.5c0.3,1,0.4,2,0.3,3l-4.1,33.5h-5.1l4.1-33.5
		c0.1-0.8-0.1-1.4-0.5-1.9c-0.5-0.5-1.1-0.8-1.8-0.8h-1.5c-0.8,0-1.4,0.3-2,0.8c-0.6,0.5-0.9,1.2-1,1.9l-4.1,33.5h-5.1l4.1-33.5
		c0.1-1.1,0.5-2.1,1-3c0.5-1,1.2-1.8,2-2.5c0.8-0.7,1.7-1.2,2.7-1.6c1-0.4,2-0.6,3.1-0.6H29C30,17.5,31,17.7,31.9,18.1z"/>
	<path class="st2" d="M60.9,19.5c0.3,0.3,0.5,0.5,0.4,0.5c0,0-0.1-0.1-0.2-0.2c-0.1-0.1-0.2-0.2-0.3-0.3
		C60.7,19.3,60.7,19.4,60.9,19.5c0.7,0.8,1.2,1.6,1.5,2.7c0.3,1,0.4,2,0.3,3.1l-1.6,13h-1.6H56l1.6-13c0.1-0.7-0.1-1.3-0.6-1.9
		c-0.5-0.5-1.1-0.8-1.8-0.8h-1.5c-0.7,0-1.4,0.3-2,0.8c-0.6,0.5-0.9,1.2-1,1.9L47.5,51c-0.1,0.7,0.1,1.3,0.6,1.9
		c0.5,0.5,1.1,0.8,1.8,0.8h1.5c0.8,0,1.4-0.3,2-0.8c0.6-0.5,0.9-1.2,1-1.9l0.3-2.5h-4.5l0.6-5.1h4.6h3.5h1.6l-0.9,7.6
		c-0.2,1.7-0.9,3.2-2,4.5c-1.1,1.3-2.5,2.3-4,2.9c-0.9,0.3-1.8,0.5-2.7,0.5h-1.5c-1.1,0-2-0.2-2.9-0.6c-0.9-0.4-1.6-0.9-2.3-1.6
		c-0.6-0.7-1.1-1.5-1.4-2.4c-0.3-0.9-0.4-1.9-0.3-3l3.1-25.8c0.1-1.1,0.5-2.1,1-3c0.5-0.9,1.2-1.8,2-2.5c0.8-0.7,1.7-1.3,2.7-1.7
		c1-0.4,2-0.6,3.1-0.6h1.5c0.9,0,1.8,0.2,2.7,0.5C59.4,18.3,60.2,18.8,60.9,19.5z"/>
</g>
<g>
	<path class="st2" d="M148.2,63h2.8v5c0.4-0.3,0.8-0.5,1.2-0.7c0.4-0.2,0.9-0.2,1.3-0.2c0.6,0,1.1,0.1,1.6,0.3
		c0.5,0.2,0.9,0.5,1.2,0.9c0.3,0.4,0.6,0.8,0.8,1.4s0.3,1.1,0.3,1.8c0,0.7-0.1,1.3-0.3,1.9c-0.2,0.6-0.5,1-0.9,1.4s-0.8,0.7-1.3,0.9
		c-0.5,0.2-1.1,0.3-1.7,0.3c-0.4,0-0.8-0.1-1.2-0.2c-0.4-0.1-0.7-0.3-1-0.5v0.5h-1.5V64.4h-1.2L148.2,63L148.2,63z M153.1,68.4
		c-0.4,0-0.8,0.1-1.2,0.2c-0.4,0.2-0.7,0.4-1,0.7V74c0.2,0.2,0.4,0.3,0.8,0.5c0.3,0.1,0.8,0.2,1.3,0.2c0.4,0,0.7-0.1,1-0.2
		s0.6-0.3,0.9-0.6c0.2-0.3,0.4-0.6,0.6-1c0.1-0.4,0.2-0.9,0.2-1.4c0-0.5-0.1-0.9-0.2-1.3s-0.3-0.7-0.6-1c-0.2-0.3-0.5-0.5-0.8-0.6
		C153.8,68.5,153.5,68.4,153.1,68.4z"/>
	<path class="st2" d="M158.2,67.3h3.3v1.4h-1l2,5.5l2.1-5.5h-1v-1.4h3.3v1.4h-0.9l-3.8,9.6h1.2v1.4h-3.5v-1.4h1l0.9-2.4l-2.9-7.3
		h-0.7V67.3z"/>
	<path class="st1" d="M172.2,63.3h4.1v1.4H175v9.7h1.3v1.4h-4.1v-1.4h1.2v-9.7h-1.2V63.3z M180.5,64.7v-1.4h2.9v1.4h-1l-5.5,4.6
		l5.1,5.1h1.3v1.4H180v-1.4l-5-5L180.5,64.7z"/>
	<path class="st1" d="M185.2,63.3h9v3.6h-1.7v-2.1H188v4h3.8v1.4H188v4.3h4.5v-2.1h1.7v3.5h-9v-1.4h1.2v-9.7h-1.2V63.3z"/>
	<path class="st1" d="M203.6,63.3h4.1v1.4h-1.1v11.1h-2.1l-5.8-10.4v9h1.3v1.4h-4.1v-1.4h1.2v-9.7h-1.2v-1.5h3.4l5.7,10.3l0.1-0.4
		v-8.5h-1.4L203.6,63.3L203.6,63.3z"/>
	<path class="st1" d="M209.3,63.3h4.7c0.6,0,1.1,0.1,1.6,0.2c0.5,0.1,1,0.4,1.4,0.6c0.4,0.3,0.9,0.6,1.2,1c0.4,0.4,0.7,0.8,0.9,1.3
		c0.3,0.5,0.5,1,0.6,1.5c0.1,0.5,0.2,1.1,0.2,1.7c0,0.6-0.1,1.1-0.2,1.7c-0.1,0.5-0.3,1-0.6,1.5c-0.3,0.5-0.6,0.9-0.9,1.3
		c-0.4,0.4-0.8,0.7-1.2,1c-0.4,0.3-0.9,0.5-1.4,0.6c-0.5,0.1-1.1,0.2-1.6,0.2h-4.7v-1.4h1.2v-9.7h-1.2V63.3z M212.1,64.7v9.7h2
		c0.6,0,1.1-0.1,1.6-0.4c0.5-0.3,1-0.6,1.3-1c0.4-0.4,0.7-1,0.9-1.6c0.2-0.6,0.3-1.2,0.3-1.9c0-0.7-0.1-1.3-0.3-1.9
		c-0.2-0.6-0.5-1.1-0.9-1.5c-0.4-0.4-0.8-0.8-1.3-1c-0.5-0.2-1.1-0.4-1.6-0.4H212.1z"/>
	<path class="st1" d="M227.3,76.1c-0.9,0-1.7-0.2-2.4-0.5s-1.4-0.8-1.9-1.4c-0.6-0.6-1-1.3-1.3-2.1c-0.3-0.8-0.4-1.7-0.4-2.5
		c0-0.9,0.1-1.8,0.4-2.6c0.3-0.8,0.7-1.5,1.2-2.1c0.5-0.6,1.2-1.1,1.9-1.4c0.7-0.3,1.5-0.5,2.4-0.5c0.9,0,1.7,0.2,2.4,0.5
		c0.7,0.3,1.4,0.8,1.9,1.4c0.5,0.6,0.9,1.3,1.2,2.1s0.4,1.6,0.4,2.6s-0.1,1.8-0.4,2.6c-0.3,0.8-0.7,1.5-1.2,2.1
		c-0.5,0.6-1.2,1.1-1.9,1.4C229,75.9,228.2,76.1,227.3,76.1z M227.3,74.6c0.7,0,1.3-0.1,1.8-0.4c0.5-0.3,1-0.6,1.4-1.1
		s0.7-1,0.9-1.6c0.2-0.6,0.3-1.2,0.3-1.9c0-0.7-0.1-1.3-0.3-2c-0.2-0.6-0.5-1.2-0.9-1.6s-0.9-0.8-1.4-1c-0.5-0.2-1.1-0.4-1.7-0.4
		c-0.7,0-1.3,0.1-1.8,0.4c-0.5,0.3-1,0.6-1.4,1.1s-0.7,1-0.9,1.6c-0.2,0.6-0.3,1.2-0.3,1.9c0,0.8,0.1,1.5,0.3,2.1
		c0.2,0.6,0.5,1.1,0.9,1.5c0.4,0.4,0.8,0.7,1.3,1C226.1,74.4,226.7,74.6,227.3,74.6z"/>
	<path class="st1" d="M238.2,63.3h4.1v1.4H241v5.9c0,0.7,0.1,1.3,0.2,1.8c0.2,0.5,0.4,0.9,0.7,1.2s0.6,0.5,1,0.7s0.8,0.2,1.3,0.2
		c0.5,0,0.9-0.1,1.3-0.2s0.7-0.3,1-0.6c0.3-0.3,0.5-0.7,0.7-1.2s0.2-1.1,0.2-1.9v-5.9h-1.4v-1.4h4.1v1.4H249v5.7
		c0,0.9-0.1,1.7-0.4,2.4c-0.3,0.7-0.6,1.3-1,1.8s-1,0.8-1.5,1.1c-0.6,0.2-1.2,0.4-1.9,0.4c-0.7,0-1.3-0.1-1.9-0.4
		c-0.6-0.2-1.1-0.6-1.5-1.1c-0.4-0.5-0.8-1-1-1.7s-0.4-1.5-0.4-2.3v-5.8h-1.2V63.3z"/>
	<path class="st1" d="M251.8,63.3h4v1.4h-1.2v9.7h1.2v1.4h-4v-1.4h1.2v-9.7h-1.2V63.3z"/>
</g>
</svg>
