<?xml version="1.0" encoding="utf-8"?>
<!-- Generator: Adobe Illustrator 19.2.1, SVG Export Plug-In . SVG Version: 6.00 Build 0)  -->
<svg version="1.1" id="Layer_1" xmlns="http://www.w3.org/2000/svg" xmlns:xlink="http://www.w3.org/1999/xlink" x="0px" y="0px"
	 viewBox="0 0 260.6 80.3" style="enable-background:new 0 0 260.6 80.3;" xml:space="preserve">
<style type="text/css">
	.st0{fill:#F1F1F1;}
	.st1{fill:#FFFFFF;}
</style>
<path class="st0" d="M37.4,0.1L0,13.4l5.7,49.3l31.6,17.5l32.1-17.7l6.3-49.3L37.4,0.1z M35.3,25.1l-4.1,33.5H26l4.1-33.5
	c0.1-0.8-0.1-1.4-0.5-1.9c-0.5-0.5-1.1-0.8-1.8-0.8h-1.5c-0.8,0-1.4,0.3-2,0.8c-0.6,0.5-0.9,1.2-1,1.9l-4.1,33.5H14l4.1-33.5
	c0.1-1.1,0.5-2.1,1-3c0.5-1,1.2-1.8,2-2.5c0.8-0.7,1.7-1.2,2.7-1.6c1-0.4,2-0.6,3.1-0.6h1.5c1.1,0,2,0.2,2.9,0.6
	c0.9,0.4,1.6,1,2.3,1.6c0.6,0.7,1.1,1.5,1.4,2.5C35.4,23,35.4,24.1,35.3,25.1z M62.1,25.1l-1.6,13H59h-3.5l1.6-13
	c0.1-0.7-0.1-1.3-0.6-1.9c-0.5-0.5-1.1-0.8-1.8-0.8h-1.5c-0.7,0-1.4,0.3-2,0.8c-0.6,0.5-0.9,1.2-1,1.9L47,50.9
	c-0.1,0.7,0.1,1.3,0.6,1.9c0.5,0.5,1.1,0.8,1.8,0.8h1.5c0.8,0,1.4-0.3,2-0.8c0.6-0.5,0.9-1.2,1-1.9l0.3-2.5h-4.5l0.6-5.1h4.6h3.5
	h1.6L59,50.8c-0.2,1.7-0.9,3.2-2,4.5c-1.1,1.3-2.5,2.3-4,2.9c-0.9,0.3-1.8,0.5-2.7,0.5h-1.5c-1.1,0-2-0.2-2.9-0.6
	c-0.9-0.4-1.6-0.9-2.3-1.6c-0.6-0.7-1.1-1.5-1.4-2.4c-0.3-0.9-0.4-1.9-0.3-3L45,25.1c0.1-1.1,0.5-2.1,1-3c0.5-0.9,1.2-1.8,2-2.5
	c0.8-0.7,1.7-1.3,2.7-1.7c1-0.4,2-0.6,3.1-0.6h1.5c0.9,0,1.8,0.2,2.7,0.5c0.9,0.3,1.7,0.9,2.3,1.5c0,0-0.1-0.1-0.1-0.1
	c-0.1-0.1-0.1-0.1,0.1,0.1c0,0,0,0,0,0c0.1,0.1,0.1,0.1,0.2,0.2c0.1,0.1,0.2,0.2,0.2,0.2c0,0-0.1-0.1-0.4-0.5c0,0,0,0,0,0
	c0.7,0.8,1.2,1.6,1.5,2.6C62.2,23.1,62.3,24.1,62.1,25.1z"/>
<path class="st0" d="M60.2,19.3C60.3,19.3,60.3,19.4,60.2,19.3c0.1,0.1,0.1,0.1,0.1,0.1C60.2,19.2,60.1,19.2,60.2,19.3z"/>
<path class="st0" d="M60.8,19.9c0,0-0.1-0.1-0.2-0.2c-0.1-0.1-0.2-0.2-0.2-0.2C60.7,19.8,60.8,19.9,60.8,19.9z"/>
<path class="st0" d="M60.3,19.4C60.3,19.4,60.3,19.4,60.3,19.4C60.3,19.4,60.3,19.4,60.3,19.4C60.3,19.4,60.3,19.4,60.3,19.4z"/>
<polygon class="st0" points="60.4,19.4 60.3,19.4 60.4,19.4 "/>
<path class="st1" d="M37.3,0.1v80.1l32.1-17.7l6.2-49.3L37.3,0.1z M62.1,25.1l-1.6,13H59h-3.5l1.6-13c0.1-0.7-0.1-1.3-0.6-1.9
	c-0.5-0.5-1.1-0.8-1.8-0.8h-1.5c-0.7,0-1.4,0.3-2,0.8c-0.6,0.5-0.9,1.2-1,1.9L47,50.9c-0.1,0.7,0.1,1.3,0.6,1.9
	c0.5,0.5,1.1,0.8,1.8,0.8h1.5c0.8,0,1.4-0.3,2-0.8c0.6-0.5,0.9-1.2,1-1.9l0.3-2.5h-4.5l0.6-5.1h4.6h3.5h1.6L59,50.8
	c-0.2,1.7-0.9,3.2-2,4.5c-1.1,1.3-2.5,2.3-4,2.9c-0.9,0.3-1.8,0.5-2.7,0.5h-1.5c-1.1,0-2-0.2-2.9-0.6c-0.9-0.4-1.6-0.9-2.3-1.6
	c-0.6-0.7-1.1-1.5-1.4-2.4c-0.3-0.9-0.4-1.9-0.3-3L45,25.1c0.1-1.1,0.5-2.1,1-3c0.5-0.9,1.2-1.8,2-2.5c0.8-0.7,1.7-1.3,2.7-1.7
	c1-0.4,2-0.6,3.1-0.6h1.5c0.9,0,1.8,0.2,2.7,0.5c0.9,0.3,1.7,0.9,2.3,1.5c0,0-0.1-0.1-0.1-0.1c-0.1-0.1-0.1-0.1,0.1,0.1c0,0,0,0,0,0
	c0.1,0.1,0.1,0.1,0.2,0.2c0.1,0.1,0.2,0.2,0.2,0.2c0,0-0.1-0.1-0.4-0.5c0,0,0,0,0,0c0.7,0.8,1.2,1.6,1.5,2.6
	C62.2,23.1,62.3,24.1,62.1,25.1z"/>
<polygon class="st1" points="60.4,19.4 60.3,19.4 60.4,19.4 "/>
<path class="st1" d="M60.8,19.9c0,0-0.1-0.1-0.2-0.2c-0.1-0.1-0.2-0.2-0.2-0.2C60.7,19.8,60.8,19.9,60.8,19.9z"/>
<path class="st1" d="M60.2,19.3C60.3,19.3,60.3,19.4,60.2,19.3c0.1,0.1,0.1,0.1,0.1,0.1C60.2,19.2,60.1,19.2,60.2,19.3z"/>
<path class="st1" d="M60.3,19.4C60.3,19.4,60.3,19.4,60.3,19.4C60.3,19.4,60.3,19.4,60.3,19.4C60.3,19.4,60.3,19.4,60.3,19.4z"/>
<g>
	<path class="st1" d="M111.7,18c0.9,0.4,1.7,1,2.3,1.6c0.6,0.7,1.1,1.5,1.4,2.5c0.3,1,0.4,2,0.2,3l-4.1,33.5h-5.1l0.6-5.1l0.6-5.2
		l0.7-5.1l1.3-11.1l0.9-7c0.1-0.8-0.1-1.4-0.6-1.9c-0.4-0.5-1-0.8-1.8-0.8h-1.5c-0.7,0-1.4,0.3-2,0.8c-0.6,0.5-0.9,1.1-1,1.9
		l-2.2,18.1l-0.7,5.1l-1.2,10.3h-5.1l1.3-10.3l0.6-5.1l2.2-18.1c0.1-0.8-0.1-1.4-0.6-1.9c-0.4-0.5-1-0.8-1.8-0.8h-1.5
		c-0.8,0-1.4,0.3-2,0.8c-0.6,0.5-0.9,1.1-1,1.9l-0.8,7l-1.4,11.1l-0.6,5.1l-0.6,5.2l-0.7,5.1h-5.1l4.1-33.5c0.1-1.1,0.5-2.1,1-3
		c0.5-1,1.2-1.8,2-2.5c0.8-0.7,1.7-1.2,2.7-1.6c1-0.4,2-0.6,3.1-0.6h1.5c2.1,0,3.7,0.7,5,2c1.6-1.3,3.4-2,5.5-2h1.5
		C109.8,17.3,110.8,17.6,111.7,18z"/>
	<path class="st1" d="M131.6,17.3l-5.1,41.2h-5.1l5-41.2C126.5,17.3,131.6,17.3,131.6,17.3z"/>
	<path class="st1" d="M155.6,19.4c0.3,0.3,0.5,0.5,0.4,0.5c0,0-0.1-0.1-0.2-0.2s-0.2-0.2-0.3-0.3C155.4,19.2,155.4,19.2,155.6,19.4
		c0.7,0.8,1.2,1.6,1.5,2.7c0.3,1,0.4,2,0.3,3.1l-1.6,13h-1.6h-3.5l1.6-13c0.1-0.7-0.1-1.3-0.6-1.9c-0.5-0.5-1.1-0.8-1.8-0.8h-1.5
		c-0.7,0-1.4,0.3-2,0.8c-0.6,0.5-0.9,1.1-1,1.9l-3.2,25.7c-0.1,0.7,0.1,1.3,0.6,1.9s1.1,0.8,1.8,0.8h1.5c0.8,0,1.4-0.3,2-0.8
		c0.6-0.5,0.9-1.2,1-1.9l0.3-2.5h-4.5l0.6-5.1h4.6h3.5h1.6l-0.9,7.6c-0.2,1.7-0.9,3.2-2,4.5c-1.1,1.3-2.5,2.3-4,2.9
		c-0.9,0.3-1.8,0.5-2.7,0.5h-1.5c-1.1,0-2-0.2-2.9-0.6c-0.9-0.4-1.6-0.9-2.3-1.6c-0.6-0.7-1.1-1.5-1.4-2.4c-0.3-0.9-0.4-1.9-0.3-3
		l3.1-25.8c0.1-1.1,0.5-2.1,1-3c0.5-0.9,1.2-1.8,2-2.5c0.8-0.7,1.7-1.3,2.7-1.7c1-0.4,2-0.6,3.1-0.6h1.5c0.9,0,1.8,0.2,2.7,0.5
		C154.1,18.2,154.9,18.7,155.6,19.4z"/>
	<path class="st1" d="M183.3,32.2c-0.1,1-0.4,2-0.9,2.9c-0.5,0.9-1.1,1.7-1.8,2.4c0.5,0.7,1,1.5,1.2,2.4c0.3,0.9,0.3,1.9,0.2,2.9
		l-2,15.9h-5.1l0.7-5.1l1.3-10.8c0.1-0.8-0.1-1.4-0.5-1.9c-0.5-0.5-1.1-0.8-1.8-0.8h-4.2l-1.6,13.4l-0.7,5.1h-5.1l2.3-18.5h-1.9
		l0.6-5.1h1.9l2.2-17.6h9.4c1.1,0,2,0.2,2.9,0.6c0.9,0.4,1.6,1,2.3,1.6c0.6,0.7,1.1,1.5,1.4,2.5c0.3,1,0.4,2,0.3,3L183.3,32.2z
		 M175.1,35c0.7,0,1.4-0.3,2-0.8s0.9-1.2,1-1.9l0.1-0.1l0.8-7c0.1-0.8-0.1-1.4-0.5-1.9c-0.5-0.5-1.1-0.8-1.8-0.8h-4.2l-1.2,9.7
		l-0.4,2.8H175.1z"/>
	<path class="st1" d="M204.4,17.3c1.1,0,2.1,0.2,3,0.6c0.9,0.4,1.7,1,2.3,1.6c0.6,0.7,1.1,1.5,1.4,2.5c0.3,1,0.4,2,0.2,3l-4.1,33.5
		H202l0.6-5.1l0.6-5.2h-6.9l-0.6,5.2l-0.6,5.1H190l1.3-10.3h-1.9l0.6-5.1h1.9l2.2-18.1c0.1-1.1,0.5-2.1,1-3c0.5-1,1.2-1.8,2-2.5
		c0.8-0.7,1.7-1.2,2.7-1.6s2-0.6,3.1-0.6L204.4,17.3L204.4,17.3z M206.1,25.1c0.1-0.8-0.1-1.4-0.6-1.9c-0.4-0.5-1-0.8-1.8-0.8h-1.5
		c-0.7,0-1.4,0.3-2,0.8c-0.6,0.5-0.9,1.1-1,1.9l-0.9,7L197,43.2h6.9l1.3-11.1L206.1,25.1z"/>
	<path class="st1" d="M236.2,17.3l-0.6,5.1h-0.5h-5.3l-4.4,36.1h-5.1l4.5-36.1h-1.2h-5.1l0.6-5.1h3.3h3h3h2.1
		C230.4,17.3,236.2,17.3,236.2,17.3z"/>
	<path class="st1" d="M260.1,17.3l-0.6,5.1H259h-7.4h-1.5c-0.8,0-1.4,0.3-2,0.8c-0.6,0.5-0.9,1.1-1,1.9l-0.9,7l-0.3,2.8h4.2h2.9h0.5
		l-0.6,5.1h-0.5h-2.9h-4.3l-1,8.2l-0.3,2.2l-0.1,0.4c-0.1,0.7,0.1,1.3,0.4,1.8s0.8,0.8,1.4,0.9h4.7h5.1l-0.6,5.1v0.1h-5.1h-4.2
		c-0.1,0-0.3,0-0.4,0c-0.1,0-0.3,0-0.4-0.1c-0.6,0-1.2-0.2-1.8-0.4c-1.4-0.6-2.6-1.5-3.3-2.8c-0.8-1.3-1.1-2.8-0.9-4.6l0.3-2.5
		l0.4-2.7l0.3-2.4l0.4-3.1h-1.9l0.6-5.1h1.9l1.2-9.8c0.2-1.7,0.9-3.2,2-4.5c1.1-1.3,2.4-2.3,4-2.8c0.9-0.3,1.8-0.5,2.8-0.5h1.5
		L260.1,17.3L260.1,17.3z"/>
</g>
<g>
	<path class="st1" d="M147.7,62.8h2.8v5c0.4-0.3,0.8-0.5,1.2-0.7c0.4-0.2,0.9-0.2,1.3-0.2c0.6,0,1.1,0.1,1.6,0.3
		c0.5,0.2,0.9,0.5,1.2,0.9c0.3,0.4,0.6,0.8,0.8,1.4s0.3,1.1,0.3,1.8c0,0.7-0.1,1.3-0.3,1.9c-0.2,0.6-0.5,1-0.9,1.4s-0.8,0.7-1.3,0.9
		c-0.5,0.2-1.1,0.3-1.7,0.3c-0.4,0-0.8-0.1-1.2-0.2c-0.4-0.1-0.7-0.3-1-0.5v0.5h-1.5V64.3h-1.2L147.7,62.8L147.7,62.8z M152.6,68.3
		c-0.4,0-0.8,0.1-1.2,0.2c-0.4,0.2-0.7,0.4-1,0.7v4.6c0.2,0.2,0.4,0.3,0.8,0.5c0.3,0.1,0.8,0.2,1.3,0.2c0.4,0,0.7-0.1,1-0.2
		s0.6-0.3,0.9-0.6c0.2-0.3,0.4-0.6,0.6-1c0.1-0.4,0.2-0.9,0.2-1.4c0-0.5-0.1-0.9-0.2-1.3c-0.1-0.4-0.3-0.7-0.6-1
		c-0.2-0.3-0.5-0.5-0.8-0.6C153.3,68.4,153,68.3,152.6,68.3z"/>
	<path class="st1" d="M157.7,67.1h3.3v1.4h-1l2,5.5l2.1-5.5h-1v-1.4h3.3v1.4h-0.9l-3.8,9.6h1.2v1.4h-3.5v-1.4h1l0.9-2.4l-2.9-7.3
		h-0.7V67.1z"/>
	<path class="st1" d="M171.7,63.2h4.1v1.4h-1.3v9.7h1.3v1.4h-4.1v-1.4h1.2v-9.7h-1.2V63.2z M180,64.6v-1.4h2.9v1.4h-1l-5.5,4.6
		l5.1,5.1h1.3v1.4h-3.4v-1.4l-5-5L180,64.6z"/>
	<path class="st1" d="M184.7,63.2h9v3.6H192v-2.1h-4.5v4h3.8V70h-3.8v4.3h4.5v-2.1h1.7v3.5h-9v-1.4h1.2v-9.7h-1.2V63.2z"/>
	<path class="st1" d="M203.1,63.2h4.1v1.4h-1.1v11.1H204l-5.8-10.4v9h1.3v1.4h-4.1v-1.4h1.2v-9.7h-1.2v-1.5h3.4l5.7,10.3l0.1-0.4
		v-8.5h-1.4L203.1,63.2L203.1,63.2z"/>
	<path class="st1" d="M208.8,63.2h4.7c0.6,0,1.1,0.1,1.6,0.2c0.5,0.1,1,0.4,1.4,0.6c0.4,0.3,0.9,0.6,1.2,1c0.4,0.4,0.7,0.8,0.9,1.3
		c0.3,0.5,0.5,1,0.6,1.5c0.1,0.5,0.2,1.1,0.2,1.7c0,0.6-0.1,1.1-0.2,1.7c-0.1,0.5-0.3,1-0.6,1.5c-0.3,0.5-0.6,0.9-0.9,1.3
		c-0.4,0.4-0.8,0.7-1.2,1c-0.4,0.3-0.9,0.5-1.4,0.6c-0.5,0.1-1.1,0.2-1.6,0.2h-4.7v-1.4h1.2v-9.7h-1.2V63.2z M211.6,64.6v9.7h2
		c0.6,0,1.1-0.1,1.6-0.4c0.5-0.3,1-0.6,1.3-1c0.4-0.4,0.7-1,0.9-1.6c0.2-0.6,0.3-1.2,0.3-1.9c0-0.7-0.1-1.3-0.3-1.9
		c-0.2-0.6-0.5-1.1-0.9-1.5c-0.4-0.4-0.8-0.8-1.3-1c-0.5-0.2-1.1-0.4-1.6-0.4H211.6z"/>
	<path class="st1" d="M226.8,76c-0.9,0-1.7-0.2-2.4-0.5s-1.4-0.8-1.9-1.4c-0.6-0.6-1-1.3-1.3-2.1c-0.3-0.8-0.4-1.7-0.4-2.5
		c0-0.9,0.1-1.8,0.4-2.6c0.3-0.8,0.7-1.5,1.2-2.1c0.5-0.6,1.2-1.1,1.9-1.4c0.7-0.3,1.5-0.5,2.4-0.5c0.9,0,1.7,0.2,2.4,0.5
		c0.7,0.3,1.4,0.8,1.9,1.4c0.5,0.6,0.9,1.3,1.2,2.1c0.3,0.8,0.4,1.6,0.4,2.6s-0.1,1.8-0.4,2.6c-0.3,0.8-0.7,1.5-1.2,2.1
		c-0.5,0.6-1.2,1.1-1.9,1.4C228.5,75.8,227.7,76,226.8,76z M226.8,74.4c0.7,0,1.3-0.1,1.8-0.4c0.5-0.3,1-0.6,1.4-1.1s0.7-1,0.9-1.6
		c0.2-0.6,0.3-1.2,0.3-1.9c0-0.7-0.1-1.3-0.3-2c-0.2-0.6-0.5-1.2-0.9-1.6s-0.9-0.8-1.4-1c-0.5-0.2-1.1-0.4-1.7-0.4
		c-0.7,0-1.3,0.1-1.8,0.4c-0.5,0.3-1,0.6-1.4,1.1c-0.4,0.5-0.7,1-0.9,1.6c-0.2,0.6-0.3,1.2-0.3,1.9c0,0.8,0.1,1.5,0.3,2.1
		c0.2,0.6,0.5,1.1,0.9,1.5c0.4,0.4,0.8,0.7,1.3,1C225.6,74.3,226.2,74.4,226.8,74.4z"/>
	<path class="st1" d="M237.7,63.2h4.1v1.4h-1.3v5.9c0,0.7,0.1,1.3,0.2,1.8c0.2,0.5,0.4,0.9,0.7,1.2s0.6,0.5,1,0.7s0.8,0.2,1.3,0.2
		c0.5,0,0.9-0.1,1.3-0.2s0.7-0.3,1-0.6c0.3-0.3,0.5-0.7,0.7-1.2s0.2-1.1,0.2-1.9v-5.9h-1.4v-1.4h4.1v1.4h-1.1v5.7
		c0,0.9-0.1,1.7-0.4,2.4c-0.3,0.7-0.6,1.3-1,1.8s-1,0.8-1.5,1.1c-0.6,0.2-1.2,0.4-1.9,0.4c-0.7,0-1.3-0.1-1.9-0.4
		c-0.6-0.2-1.1-0.6-1.5-1.1c-0.4-0.5-0.8-1-1-1.7s-0.4-1.5-0.4-2.3v-5.8h-1.2V63.2z"/>
	<path class="st1" d="M251.3,63.2h4v1.4h-1.2v9.7h1.2v1.4h-4v-1.4h1.2v-9.7h-1.2V63.2z"/>
</g>
</svg>
