<?xml version="1.0" encoding="utf-8"?>
<!-- Generator: Adobe Illustrator 16.0.0, SVG Export Plug-In . SVG Version: 6.00 Build 0)  -->
<!DOCTYPE svg PUBLIC "-//W3C//DTD SVG 1.1//EN" "http://www.w3.org/Graphics/SVG/1.1/DTD/svg11.dtd">
<svg version="1.1" id="Layer_1" xmlns="http://www.w3.org/2000/svg" xmlns:xlink="http://www.w3.org/1999/xlink" x="0px" y="0px"
	 width="260.613px" height="80.339px" viewBox="0 0 260.613 80.339" enable-background="new 0 0 260.613 80.339"
	 xml:space="preserve">
<g id="Page-1">
	<g id="shield-large">
		<g id="Imported-Layers" transform="translate(8.000000, 11.000000)">
			<path id="Fill-1" fill="#F47847" d="M30.434-10.749L30.434-10.749L-6.984,2.53l5.684,49.305l31.645,17.504l32.094-17.74
				l6.256-49.304L30.434-10.749"/>
			<path id="Fill-2" fill="#F36B2A" d="M68.64,2.295L30.329-10.749v80.088l32.102-17.74L68.64,2.295L68.64,2.295z"/>
		</g>
	</g>
</g>
<g>
	<path fill="#FFFFFF" d="M112.169,18.092c0.911,0.412,1.676,0.961,2.292,1.648c0.619,0.687,1.074,1.51,1.366,2.471
		c0.291,0.961,0.37,1.975,0.232,3.038l-4.119,33.469h-5.1l0.618-5.096l0.62-5.203l0.668-5.098l1.339-11.071l0.875-7.003
		c0.069-0.754-0.12-1.39-0.565-1.904c-0.446-0.515-1.046-0.773-1.801-0.773h-1.547c-0.72,0-1.374,0.258-1.955,0.773
		c-0.585,0.515-0.928,1.15-1.029,1.904l-2.214,18.074l-0.67,5.098l-1.235,10.299h-5.148l1.287-10.299l0.617-5.098l2.215-18.074
		c0.067-0.754-0.121-1.39-0.566-1.904c-0.447-0.515-1.048-0.773-1.803-0.773h-1.497c-0.755,0-1.425,0.258-2.008,0.773
		c-0.584,0.515-0.928,1.15-1.028,1.904l-0.824,7.003l-1.392,11.071l-0.617,5.098l-0.618,5.203l-0.67,5.096h-5.099l4.12-33.469
		c0.136-1.062,0.464-2.076,0.979-3.038c0.515-0.961,1.167-1.785,1.958-2.471c0.79-0.688,1.681-1.236,2.677-1.648
		c0.995-0.412,2.041-0.618,3.14-0.618h1.545c2.061,0,3.726,0.669,4.995,2.008c1.613-1.339,3.432-2.008,5.459-2.008h1.545
		C110.272,17.474,111.261,17.681,112.169,18.092z"/>
	<path fill="#FFFFFF" d="M132.124,17.474l-5.098,41.244h-5.099l5.047-41.244H132.124z"/>
	<path fill="#FFFFFF" d="M156.068,19.534c0.309,0.343,0.454,0.499,0.436,0.464c-0.016-0.035-0.085-0.111-0.205-0.232
		s-0.23-0.232-0.335-0.335C155.863,19.327,155.896,19.362,156.068,19.534c0.72,0.756,1.235,1.64,1.544,2.651
		c0.31,1.013,0.394,2.034,0.257,3.064l-1.596,12.977h-1.599h-3.502l1.599-12.977c0.066-0.72-0.13-1.347-0.592-1.879
		c-0.464-0.531-1.057-0.798-1.777-0.798h-1.544c-0.72,0-1.381,0.258-1.982,0.772c-0.6,0.515-0.936,1.15-1.004,1.904l-3.191,25.747
		c-0.069,0.721,0.128,1.34,0.592,1.854s1.056,0.772,1.776,0.772h1.545c0.754,0,1.425-0.268,2.007-0.799
		c0.584-0.533,0.926-1.175,1.03-1.932l0.258-2.473h-4.531l0.618-5.098h4.583h3.503h1.596l-0.927,7.569
		c-0.207,1.681-0.868,3.185-1.982,4.505c-1.117,1.322-2.464,2.273-4.042,2.859c-0.893,0.307-1.803,0.461-2.729,0.461h-1.545
		c-1.063,0-2.042-0.196-2.935-0.592c-0.893-0.394-1.647-0.944-2.267-1.646c-0.617-0.704-1.073-1.52-1.364-2.447
		c-0.292-0.926-0.388-1.921-0.283-2.984l3.142-25.799c0.136-1.062,0.464-2.067,0.978-3.012c0.517-0.943,1.176-1.767,1.982-2.471
		c0.806-0.703,1.707-1.262,2.704-1.673c0.994-0.412,2.042-0.618,3.14-0.618h1.494c0.927,0,1.835,0.172,2.729,0.515
		C154.642,18.332,155.414,18.847,156.068,19.534z"/>
	<path fill="#FFFFFF" d="M183.769,32.355c-0.137,1.03-0.438,1.991-0.899,2.883c-0.464,0.893-1.058,1.683-1.777,2.368
		c0.548,0.688,0.951,1.487,1.208,2.396c0.259,0.91,0.318,1.863,0.182,2.858l-1.957,15.858h-5.149l0.67-5.096l1.287-10.763
		c0.104-0.754-0.077-1.392-0.541-1.906c-0.464-0.515-1.055-0.773-1.775-0.773h-4.224l-1.647,13.441l-0.669,5.096h-5.098
		l2.266-18.537h-1.854l0.619-5.097h1.854l2.161-17.61h9.372c1.063,0,2.042,0.207,2.936,0.618c0.893,0.411,1.648,0.961,2.266,1.648
		c0.617,0.687,1.081,1.51,1.393,2.471c0.309,0.961,0.393,1.975,0.257,3.038L183.769,32.355z M175.634,35.084
		c0.72,0,1.381-0.266,1.981-0.798c0.6-0.532,0.935-1.175,1.004-1.931l0.051-0.104l0.825-7.003c0.104-0.754-0.078-1.39-0.542-1.904
		c-0.462-0.515-1.072-0.773-1.828-0.773h-4.169l-1.184,9.68l-0.362,2.833H175.634z"/>
	<path fill="#FFFFFF" d="M204.88,17.474c1.065,0,2.051,0.207,2.964,0.618c0.907,0.412,1.672,0.961,2.292,1.648
		c0.616,0.687,1.07,1.51,1.363,2.471c0.291,0.961,0.368,1.975,0.232,3.038l-4.119,33.469h-5.098l0.614-5.096l0.62-5.203h-6.899
		l-0.616,5.203l-0.62,5.096h-5.149l1.287-10.297h-1.854l0.618-5.098h1.854l2.213-18.075c0.138-1.062,0.471-2.076,1.003-3.038
		c0.532-0.961,1.193-1.785,1.984-2.471c0.789-0.688,1.681-1.236,2.676-1.648c0.995-0.412,2.025-0.618,3.09-0.618H204.88z
		 M206.631,25.249c0.07-0.754-0.12-1.39-0.565-1.904c-0.447-0.515-1.048-0.772-1.802-0.772h-1.544c-0.723,0-1.384,0.258-1.983,0.772
		c-0.601,0.515-0.936,1.15-1.004,1.904l-0.874,7.003l-1.34,11.072h6.897l1.341-11.072L206.631,25.249z"/>
	<path fill="#FFFFFF" d="M236.669,17.474l-0.617,5.098h-0.465h-5.302l-4.431,36.146h-5.149l4.481-36.146h-1.186h-5.098l0.619-5.098
		h3.293h2.987h3.038h2.061H236.669z"/>
	<path fill="#FFFFFF" d="M260.614,17.474l-0.62,5.098h-0.464h-7.361h-1.494c-0.756,0-1.424,0.258-2.009,0.772
		c-0.585,0.515-0.928,1.15-1.028,1.904l-0.875,7.003l-0.312,2.78h4.224h2.884h0.464l-0.62,5.149h-0.461h-2.886h-4.272l-0.979,8.188
		l-0.258,2.164l-0.051,0.36c-0.068,0.687,0.068,1.271,0.411,1.75s0.825,0.791,1.443,0.927h4.734h5.101l-0.618,5.098v0.051h-5.149
		h-4.224c-0.137,0-0.265,0-0.384,0c-0.121,0-0.268-0.018-0.439-0.051c-0.585-0.033-1.183-0.17-1.803-0.41
		c-1.44-0.551-2.56-1.485-3.346-2.807c-0.789-1.322-1.082-2.843-0.875-4.559l0.31-2.473l0.359-2.676l0.256-2.42l0.414-3.143h-1.854
		l0.616-5.097h1.854l1.235-9.835c0.206-1.682,0.867-3.182,1.983-4.505c1.115-1.322,2.443-2.257,3.988-2.807
		c0.858-0.309,1.787-0.463,2.782-0.463h1.545H260.614z"/>
</g>
<g>
	<path fill="#292C2F" d="M31.906,18.091c0.891,0.412,1.646,0.961,2.266,1.648c0.617,0.687,1.081,1.51,1.39,2.472
		c0.308,0.961,0.394,1.975,0.257,3.038l-4.12,33.471h-5.148l4.119-33.471c0.104-0.754-0.076-1.39-0.541-1.905
		c-0.464-0.515-1.073-0.771-1.828-0.771h-1.493c-0.756,0-1.426,0.258-2.009,0.771c-0.583,0.515-0.927,1.151-1.028,1.905
		l-4.12,33.471H14.55l4.12-33.471c0.137-1.062,0.463-2.076,0.979-3.038c0.515-0.962,1.167-1.785,1.957-2.472
		c0.789-0.688,1.681-1.236,2.678-1.648c0.995-0.411,2.042-0.618,3.141-0.618h1.546C30.032,17.473,31.013,17.68,31.906,18.091z"/>
	<path fill="#292C2F" d="M60.856,19.533c0.308,0.343,0.453,0.499,0.436,0.464c-0.015-0.035-0.085-0.112-0.204-0.232
		c-0.122-0.121-0.231-0.232-0.336-0.335C60.65,19.327,60.683,19.361,60.856,19.533c0.72,0.756,1.234,1.64,1.545,2.651
		c0.308,1.013,0.393,2.034,0.257,3.064L61.06,38.225h-1.598h-3.5l1.598-12.977c0.066-0.721-0.13-1.347-0.593-1.879
		c-0.464-0.531-1.056-0.798-1.776-0.798h-1.546c-0.72,0-1.38,0.258-1.981,0.772c-0.6,0.515-0.936,1.151-1.004,1.905l-3.193,25.748
		c-0.067,0.719,0.129,1.338,0.594,1.854c0.464,0.515,1.055,0.771,1.775,0.771h1.545c0.754,0,1.425-0.267,2.009-0.797
		c0.583-0.533,0.926-1.176,1.028-1.932l0.258-2.473h-4.531l0.618-5.098h4.583h3.502h1.596l-0.927,7.57
		c-0.206,1.682-0.867,3.184-1.981,4.505c-1.117,1.321-2.464,2.272-4.043,2.858c-0.892,0.308-1.802,0.463-2.729,0.463h-1.547
		c-1.062,0-2.042-0.197-2.933-0.594c-0.894-0.394-1.647-0.943-2.267-1.646c-0.617-0.705-1.074-1.52-1.364-2.445
		c-0.292-0.927-0.387-1.923-0.283-2.986l3.142-25.799c0.137-1.062,0.464-2.067,0.979-3.012c0.514-0.943,1.174-1.768,1.981-2.471
		c0.806-0.703,1.708-1.262,2.703-1.674c0.996-0.411,2.041-0.618,3.141-0.618h1.494c0.928,0,1.836,0.172,2.729,0.515
		C59.429,18.332,60.201,18.847,60.856,19.533z"/>
</g>
<g>
	<path fill="#FFFFFF" d="M148.209,62.958h2.785v5.024c0.365-0.281,0.764-0.506,1.194-0.672c0.431-0.165,0.876-0.248,1.335-0.248
		c0.564,0,1.08,0.104,1.551,0.314c0.469,0.211,0.875,0.506,1.215,0.888c0.34,0.381,0.604,0.839,0.791,1.372s0.282,1.123,0.282,1.771
		c0,0.69-0.104,1.316-0.315,1.878c-0.21,0.561-0.502,1.043-0.875,1.446s-0.816,0.715-1.33,0.933
		c-0.514,0.219-1.078,0.328-1.691,0.328c-0.426,0-0.824-0.062-1.198-0.187c-0.373-0.125-0.692-0.286-0.958-0.485v0.539h-1.541
		V64.383h-1.244V62.958z M153.117,68.421c-0.403,0-0.791,0.083-1.16,0.249c-0.371,0.166-0.691,0.39-0.963,0.672v4.618
		c0.178,0.182,0.438,0.344,0.779,0.484c0.344,0.142,0.774,0.212,1.294,0.212c0.354,0,0.694-0.066,1.021-0.199
		s0.613-0.333,0.861-0.602c0.249-0.268,0.448-0.601,0.598-0.999c0.148-0.397,0.224-0.862,0.224-1.393
		c0-0.486-0.071-0.917-0.212-1.293s-0.331-0.694-0.572-0.954c-0.24-0.26-0.521-0.457-0.841-0.593
		C153.824,68.49,153.483,68.421,153.117,68.421z"/>
	<path fill="#FFFFFF" d="M158.217,67.269h3.258v1.426h-1.02l2.015,5.48l2.106-5.48h-1.012v-1.426h3.258v1.426h-0.887l-3.822,9.643
		h1.178v1.427h-3.466v-1.427h1.044l0.912-2.362l-2.868-7.28h-0.696V67.269z"/>
	<path fill="#F36B2A" d="M172.229,63.29h4.079v1.435h-1.276v9.708h1.26v1.427h-4.079v-1.427h1.194v-9.708h-1.178V63.29z
		 M180.536,64.724V63.29h2.886v1.435h-0.987l-5.505,4.635l5.148,5.073h1.344v1.427h-3.383v-1.427l-4.991-4.991L180.536,64.724z"/>
	<path fill="#F36B2A" d="M185.171,63.29h9.004v3.557h-1.699v-2.122h-4.485v4.021h3.772v1.427h-3.772v4.261h4.485V72.31h1.699v3.549
		h-9.004v-1.427h1.194v-9.708h-1.194V63.29z"/>
	<path fill="#F36B2A" d="M203.611,63.29h4.079v1.435h-1.069v11.135h-2.123l-5.845-10.422v8.995h1.293v1.427h-4.079v-1.427h1.161
		v-9.708h-1.194v-1.451h3.383l5.737,10.322l0.066-0.398v-8.473h-1.409V63.29z"/>
	<path fill="#F36B2A" d="M209.298,63.29h4.676c0.575,0,1.122,0.074,1.643,0.224c0.519,0.149,1.003,0.359,1.45,0.63
		c0.448,0.271,0.854,0.596,1.219,0.975c0.365,0.379,0.676,0.8,0.933,1.265c0.258,0.464,0.455,0.963,0.594,1.496
		c0.138,0.533,0.207,1.088,0.207,1.662c0,0.586-0.069,1.147-0.207,1.684c-0.139,0.536-0.336,1.039-0.594,1.509
		c-0.257,0.47-0.567,0.896-0.933,1.281c-0.364,0.384-0.771,0.713-1.219,0.986c-0.447,0.273-0.932,0.485-1.45,0.635
		c-0.521,0.148-1.067,0.224-1.643,0.224h-4.676v-1.427h1.194v-9.708h-1.194V63.29z M212.117,64.724v9.708h1.956
		c0.581,0,1.127-0.127,1.638-0.381c0.512-0.254,0.958-0.602,1.339-1.041c0.382-0.439,0.683-0.956,0.904-1.55
		c0.221-0.595,0.331-1.234,0.331-1.92c0-0.674-0.11-1.304-0.331-1.89c-0.222-0.586-0.522-1.096-0.904-1.53
		c-0.381-0.434-0.827-0.775-1.339-1.023c-0.511-0.249-1.057-0.373-1.638-0.373H212.117z"/>
	<path fill="#F36B2A" d="M227.34,76.107c-0.868,0-1.661-0.161-2.38-0.484s-1.359-0.784-1.924-1.381
		c-0.563-0.597-0.992-1.305-1.285-2.122c-0.293-0.818-0.439-1.667-0.439-2.546c0-0.906,0.148-1.758,0.444-2.554
		c0.295-0.796,0.71-1.488,1.243-2.076c0.533-0.589,1.169-1.054,1.907-1.394c0.737-0.34,1.549-0.51,2.434-0.51
		c0.89,0,1.705,0.17,2.445,0.51c0.741,0.34,1.377,0.805,1.907,1.394c0.53,0.588,0.942,1.28,1.235,2.076s0.439,1.647,0.439,2.554
		c0,0.907-0.148,1.757-0.443,2.55c-0.296,0.793-0.711,1.485-1.244,2.077c-0.533,0.591-1.169,1.057-1.907,1.396
		C229.035,75.937,228.224,76.107,227.34,76.107z M227.34,74.565c0.657,0,1.253-0.135,1.786-0.406
		c0.533-0.271,0.988-0.634,1.364-1.09s0.666-0.985,0.87-1.588c0.205-0.603,0.307-1.238,0.307-1.907c0-0.685-0.111-1.347-0.335-1.985
		c-0.225-0.639-0.537-1.179-0.938-1.621s-0.866-0.783-1.396-1.023c-0.531-0.241-1.084-0.361-1.658-0.361
		c-0.658,0-1.255,0.136-1.791,0.406c-0.536,0.271-0.992,0.635-1.368,1.091s-0.666,0.986-0.871,1.592
		c-0.204,0.605-0.307,1.239-0.307,1.902c0,0.774,0.113,1.464,0.34,2.069c0.227,0.604,0.526,1.107,0.9,1.509
		c0.373,0.4,0.817,0.736,1.334,1.007C226.095,74.43,226.682,74.565,227.34,74.565z"/>
	<path fill="#F36B2A" d="M238.242,63.29h4.071v1.435h-1.285v5.854c0,0.701,0.078,1.3,0.236,1.795
		c0.157,0.494,0.375,0.898,0.654,1.21c0.279,0.312,0.611,0.541,0.995,0.685s0.806,0.215,1.265,0.215c0.475,0,0.912-0.063,1.31-0.19
		c0.398-0.127,0.739-0.341,1.024-0.643c0.284-0.301,0.506-0.702,0.663-1.202s0.236-1.123,0.236-1.869v-5.854h-1.359V63.29h4.07
		v1.435h-1.119v5.671c0,0.906-0.126,1.711-0.377,2.412c-0.252,0.702-0.596,1.291-1.032,1.767s-0.951,0.836-1.542,1.082
		c-0.592,0.246-1.228,0.369-1.907,0.369c-0.663,0-1.284-0.122-1.861-0.365c-0.578-0.243-1.081-0.6-1.509-1.069
		c-0.429-0.47-0.766-1.044-1.012-1.721s-0.369-1.452-0.369-2.325v-5.82h-1.152V63.29z"/>
	<path fill="#F36B2A" d="M251.831,63.29h4.013v1.435h-1.193v9.708h1.193v1.427h-4.013v-1.427h1.194v-9.708h-1.194V63.29z"/>
</g>
</svg>
