<?xml version="1.0" encoding="utf-8"?>
<!-- Generator: Adobe Illustrator 19.2.1, SVG Export Plug-In . SVG Version: 6.00 Build 0)  -->
<svg version="1.1" id="Layer_1" xmlns="http://www.w3.org/2000/svg" xmlns:xlink="http://www.w3.org/1999/xlink" x="0px" y="0px"
	 viewBox="0 0 415.1 168.5" style="enable-background:new 0 0 415.1 168.5;" xml:space="preserve">
<style type="text/css">
	.st0{fill:#FFFFFF;}
	.st1{fill:#5CE500;}
</style>
<g>
	<g>
		<g>
			<path class="st0" d="M16.2,36.7L42.9,5.3h18.3l-30.3,35l31.4,38.1H43.6L16.2,45.2v33.1H1v-73h15.2V36.7z"/>
			<path class="st0" d="M73,55.1c1.2,8.7,7.5,12.2,15.3,12.2c5.8,0,10-1.3,15.2-4.6v12.1c-4.4,3.2-10.3,4.6-17.5,4.6
				c-16.2,0-27.2-10.5-27.2-27.4c0-16.6,10.5-28.2,25-28.2c15.5,0,23.4,10.7,23.4,26.4v4.8H73z M73.5,45.5h20.1
				c-0.4-5.7-3.6-9.8-9.4-9.8C79.3,35.7,75.1,38.8,73.5,45.5z"/>
			<path class="st0" d="M113.5,25.1h14.7V30c2.9-3.3,8.1-6.1,14.3-6.1c12,0,18.8,7.8,18.8,19.6v34.7h-14.7V46.7
				c0-5.6-2.9-9.4-8.7-9.4c-4.5,0-8.4,2.7-9.6,7.4v33.7h-14.7V25.1z"/>
			<path class="st0" d="M204.4,73.9c-2.4,2.9-7.6,5.6-13.3,5.6c-15.5,0-24.1-12.5-24.1-27.7S175.6,24,191,24
				c5.7,0,10.9,2.7,13.3,5.6V1h14.9v77.3h-14.9V73.9z M204.4,43c-1.7-3.6-5.7-6.2-10-6.2c-8,0-12.7,6.4-12.7,15
				c0,8.4,4.8,14.9,12.7,14.9c4.4,0,8.3-2.5,10-6.2V43z"/>
			<path class="st0" d="M251.3,79.5c-15.5,0-26-11.4-26-27.7c0-16.4,10.6-27.8,26-27.8c15.5,0,26,11.4,26,27.8
				C277.3,68.1,266.7,79.5,251.3,79.5z M251.3,36.4c-7.4,0-11.4,6.4-11.4,15.3c0,8.8,4,15.2,11.4,15.2c7.4,0,11.4-6.4,11.4-15.2
				C262.7,42.9,258.6,36.4,251.3,36.4z"/>
			<path class="st0" d="M307.4,48.9V5.3h15.2v42.1c0,12.5,5.5,18.4,15.1,18.4s15.1-5.9,15.1-18.4V5.3H368v43.7
				c0,20.1-12,30.6-30.3,30.6C319.5,79.5,307.4,69,307.4,48.9z"/>
			<path class="st0" d="M393.8,78.3h-15.2v-73h15.2V78.3z"/>
		</g>
		<path class="st0" d="M406.1,19.2c-3.9,0-7.2-3-7.2-7.2c0-4.2,3.2-7.2,7.2-7.2c3.9,0,7.2,3,7.2,7.2C413.3,16.2,410,19.2,406.1,19.2
			 M406.1,6c-3.2,0-5.9,2.5-5.9,6c0,3.5,2.6,6,5.9,6c3.2,0,5.9-2.5,5.9-6C412,8.5,409.3,6,406.1,6 M405.3,13.4v2.4h-2.1V8.2h3.6
			c1.7,0,2.8,1,2.8,2.6c0,1.2-0.6,2-1.5,2.3l1.7,2.6h-2.4l-1.5-2.4H405.3z M406.5,9.9h-1.2v1.7h1.2c0.6,0,1-0.3,1-0.8
			C407.4,10.3,407.1,9.9,406.5,9.9"/>
	</g>
	<path class="st0" d="M17,121.3c-3.6,0-6.6,1.1-8.7,3.3v-14.5H1.6v44.6H8v-2.8c2.2,2.2,5.3,3.5,8.7,3.5c10.1,0,14.6-8.7,14.6-17.2
		C31.4,128,25.6,121.3,17,121.3 M16.2,127.1c5.1,0,8.3,4.2,8.3,11c0,7-3.1,11.3-8.2,11.3c-2.7,0-4.9-1.2-6.6-3.5
		c-1.2-1.7-1.8-4.2-1.8-7.8C7.9,133.1,10.1,127.1,16.2,127.1"/>
	<path class="st0" d="M55.8,121.9l-8.4,24l-2-5.9L39,121.9h-7.3l12.4,31.9l-2,5c-0.6,1.5-1.6,2.1-3.5,2.1l-0.3,0
		c-0.9,0-1.9-0.3-2.8-0.6l-1-0.4l0.4,6.5l0.5,0.1c1.3,0.4,2.5,0.6,3.7,0.6c4.6,0,7-1.9,9-7.1l14.5-38.1H55.8z"/>
	<path class="st1" d="M139.9,143.6c0,0.7-0.5,1.6-1.1,1.9l-15.7,9.1v-35l-30.3-17.5l15.7-9.1c0.6-0.4,1.6-0.4,2.3,0l29.2,16.9
		L139.9,143.6z M116.4,123.5l-20.8-12c-0.6-0.4-1.6-0.4-2.3,0l-14,8.1l21.9,12.6v25.3l14-8.1c0.6-0.4,1.1-1.2,1.1-2L116.4,123.5z
		 M79.3,144.9l15.1,8.7v-17.5L79.3,144.9z"/>
	<path class="st0" d="M173.3,109.9h-16.5v44.7h7.3v-17.6h9.2c10,0,15.5-4.9,15.5-13.8C188.9,119.3,187.4,109.9,173.3,109.9
		 M181.5,123.4c0,5.1-2.6,7.1-9,7.1h-8.3v-14h9.2C178.8,116.5,181.5,118.8,181.5,123.4 M210.7,122l0.6,0.3l-1.2,6.6l-0.9-0.3
		c-0.7-0.2-1.4-0.3-2.1-0.3c-6.8,0-7.4,5.5-7.4,12v14.3h-6.8v-32.9h6.4v4c1.7-2.7,3.8-4.1,6.6-4.4
		C207.6,121.1,209.4,121.4,210.7,122 M227.4,121.1c-5.3,0-9.6,2-12.4,5.9c-2.9,4-3.3,8.8-3.3,11.3c0,10.4,6.2,17.1,15.7,17.1
		c11.6,0,15.7-9.3,15.7-17.3c0-4.6-1.4-8.8-3.8-11.8C236.5,122.9,232.4,121.1,227.4,121.1 M227.4,149.3c-5.3,0-8.6-4.2-8.6-11
		c0-6.9,3.3-11.2,8.6-11.2c5.3,0,8.7,4.3,8.7,11C236.1,145,232.8,149.3,227.4,149.3 M300.2,122l0.6,0.3l-1.2,6.6l-0.9-0.3
		c-0.7-0.2-1.4-0.3-2.1-0.3c-6.8,0-7.4,5.5-7.4,12v14.3h-6.8v-32.9h6.4v4c1.7-2.7,3.8-4,6.6-4.4C297.1,121.1,298.9,121.4,300.2,122
		 M324.6,144.1l-0.1,0.4c-1.4,4-4.8,4.9-7.4,4.9c-5.1,0-8.4-3.4-8.8-9h23.2l0.1-0.6c0.1-0.8,0.1-1.8,0.1-2.6c0-0.2,0-0.4,0-0.6
		c-0.3-9.2-6.3-15.4-14.9-15.4c-5,0-9.1,2-11.9,5.7c-2.2,3-3.5,7.2-3.5,11.4c0,10.2,6.3,17,15.7,17c7.3,0,12.3-3.7,14.1-10.4
		l0.2-0.8H324.6z M308.5,134.5c0.6-4.6,3.7-7.4,8.1-7.4c3.4,0,7.4,2,8,7.4H308.5z M270,124.5c-2.2-2.3-5.1-3.4-8.7-3.4
		c-10,0-14.5,8.8-14.5,16.9c0,8.4,4.5,16.8,14.5,16.8c3.3,0,6.3-1.2,8.5-3.4c0,1.4-0.1,2.8-0.1,3.4c-0.4,5.4-3,7.9-8.2,7.9
		c-2.8,0-6.1-1-6.7-3.8l-0.1-0.6l-6.7,0l0.1,0.9c0.7,5.8,5.8,9.4,13.3,9.4c6.6,0,11.2-2.5,13.5-7.1c1.1-2.3,1.7-5.5,1.7-9.8v-29.9
		H270V124.5z M261.7,148.7c-2.4,0-7.9-1.1-7.9-11c0-6.5,3.1-10.6,8.1-10.6c3.8,0,7.9,2.8,7.9,10.6
		C269.8,144.6,266.7,148.7,261.7,148.7 M363,144.7c0,5.2-4.3,10.5-14,10.5c-8.6,0-13.7-3.7-14.4-10.4l-0.1-0.7h6.7l0.1,0.5
		c0.8,4.1,4.7,4.9,7.8,4.9c3.4,0,7-1.1,7-4.1c0-1.6-1-2.7-3-3.3c-1.2-0.4-2.6-0.8-4.2-1.2c-2.6-0.7-5.4-1.5-7.1-2.1
		c-4.2-1.5-6.6-4.4-6.6-8c0-6.6,6.4-9.6,12.8-9.6c8.5,0,13,3.2,13.5,9.8l0.1,0.7l-6.6,0l-0.1-0.5c-0.7-3.8-4.4-4.4-6.7-4.4
		c-1.9,0-6.3,0.3-6.3,3.5c0,1.4,1.2,2.5,3.7,3.2c0.8,0.2,1.9,0.5,3.2,0.8c2.7,0.7,6,1.6,7.7,2.1C360.9,138,363,140.8,363,144.7
		 M394.4,144.7c0,5.2-4.3,10.5-14,10.5c-8.6,0-13.7-3.7-14.4-10.4l-0.1-0.7h6.7l0.1,0.5c0.8,4.1,4.7,4.9,7.8,4.9c3.4,0,7-1.1,7-4.1
		c0-1.6-1-2.7-3-3.3c-1.2-0.4-2.6-0.8-4.2-1.2c-2.6-0.7-5.4-1.5-7.1-2.1c-4.2-1.5-6.6-4.4-6.6-8c0-6.6,6.4-9.6,12.8-9.6
		c8.5,0,13,3.2,13.5,9.8l0.1,0.7l-6.6,0l-0.1-0.5c-0.7-3.8-4.4-4.4-6.6-4.4c-1.9,0-6.3,0.3-6.3,3.5c0,1.4,1.2,2.5,3.7,3.2
		c0.7,0.2,1.9,0.5,3.2,0.8c2.7,0.7,6,1.6,7.7,2.1C392.3,138,394.4,140.8,394.4,144.7"/>
</g>
</svg>
